<svg width="24" height="24" viewBox="0 0 24 24" fill="none" xmlns="http://www.w3.org/2000/svg">
    <path d="M21.6875 12C21.6875 17.3503 17.3503 21.6875 12 21.6875C6.64973 21.6875 2.3125 17.3503 2.3125 12C2.3125 6.64973 6.64973 2.3125 12 2.3125C17.3503 2.3125 21.6875 6.64973 21.6875 12ZM10.8795 17.1295L18.067 9.94195C18.311 9.69789 18.311 9.30215 18.067 9.05809L17.1831 8.17422C16.939 7.93012 16.5433 7.93012 16.2992 8.17422L10.4375 14.0359L7.70082 11.2992C7.45676 11.0551 7.06102 11.0551 6.81692 11.2992L5.93305 12.183C5.68898 12.4271 5.68898 12.8229 5.93305 13.0669L9.99555 17.1294C10.2396 17.3735 10.6354 17.3735 10.8795 17.1295Z" fill="#00E275"/>
</svg>
