<svg width="16" height="16" viewBox="0 0 16 16" fill="none" xmlns="http://www.w3.org/2000/svg">
    <circle cx="8" cy="8" r="8" fill="#F3E9E9"/>
    <path d="M16 7.99691C16 12.3974 12.4069 15.9876 7.99695 15.9876C3.5931 15.9876 0 12.3974 0 7.99691C0 3.59032 3.5931 0 7.99695 0C12.4069 0 16 3.59032 16 7.99691ZM10.6441 4.84233L7.09407 10.4825L5.32516 8.27309C5.15933 8.05828 5.00577 7.99077 4.81537 7.99077C4.50827 7.99077 4.26873 8.2424 4.26873 8.54926C4.26873 8.7027 4.33015 8.85613 4.43456 8.99115L6.529 11.5197C6.70712 11.7468 6.88524 11.845 7.11864 11.845C7.35204 11.845 7.54244 11.7345 7.68371 11.5197L11.5348 5.48675C11.6147 5.35787 11.6945 5.1983 11.6945 5.051C11.6945 4.738 11.4242 4.52933 11.1294 4.52933C10.9451 4.52933 10.767 4.6398 10.6441 4.84233Z" fill="#CB2C2C"/>
</svg>
