<svg width="24" height="24" viewBox="0 0 24 24" fill="none" xmlns="http://www.w3.org/2000/svg">
    <path d="M12 2.3125C6.64844 2.3125 2.3125 6.64844 2.3125 12C2.3125 17.3516 6.64844 21.6875 12 21.6875C17.3516 21.6875 21.6875 17.3516 21.6875 12C21.6875 6.64844 17.3516 2.3125 12 2.3125ZM16.75 14.543C16.9336 14.7266 16.9336 15.0234 16.75 15.207L15.2031 16.75C15.0195 16.9336 14.7227 16.9336 14.5391 16.75L12 14.1875L9.45703 16.75C9.27344 16.9336 8.97656 16.9336 8.79297 16.75L7.25 15.2031C7.06641 15.0195 7.06641 14.7227 7.25 14.5391L9.8125 12L7.25 9.45703C7.06641 9.27344 7.06641 8.97656 7.25 8.79297L8.79688 7.24609C8.98047 7.0625 9.27734 7.0625 9.46094 7.24609L12 9.8125L14.543 7.25C14.7266 7.06641 15.0234 7.06641 15.207 7.25L16.7539 8.79688C16.9375 8.98047 16.9375 9.27734 16.7539 9.46094L14.1875 12L16.75 14.543Z" fill="#DED5D5"/>
</svg>
