<svg width="20" height="20" viewBox="0 0 20 20" fill="none" xmlns="http://www.w3.org/2000/svg">
    <path d="M19.375 9.6875C19.375 15.0378 15.0378 19.375 9.6875 19.375C4.33723 19.375 0 15.0378 0 9.6875C0 4.33723 4.33723 0 9.6875 0C15.0378 0 19.375 4.33723 19.375 9.6875ZM8.56695 14.817L15.7545 7.62945C15.9985 7.38539 15.9985 6.98965 15.7545 6.74559L14.8706 5.86172C14.6265 5.61762 14.2308 5.61762 13.9867 5.86172L8.125 11.7234L5.38832 8.98668C5.14426 8.74262 4.74852 8.74262 4.50442 8.98668L3.62055 9.87055C3.37648 10.1146 3.37648 10.5104 3.62055 10.7544L7.68305 14.8169C7.92715 15.061 8.32285 15.061 8.56695 14.817Z" fill="#00E275"/>
</svg>
