<svg width="12" height="12" viewBox="0 0 12 12" fill="none" xmlns="http://www.w3.org/2000/svg">
    <path d="M0.166818 11.8333C0.39813 12.0526 0.765855 12.0526 0.991236 11.8333L5.99705 6.82658L11.0088 11.8333C11.2282 12.0526 11.6078 12.0585 11.8273 11.8333C12.0527 11.6023 12.0527 11.2349 11.8273 11.0157L6.82147 6.0089L11.8273 1.00211C12.0527 0.782875 12.0586 0.409588 11.8273 0.18443C11.6019 -0.0348022 11.2282 -0.0348022 11.0088 0.18443L5.99705 5.19123L0.991236 0.18443C0.765855 -0.0348022 0.392199 -0.0407274 0.166818 0.18443C-0.0526307 0.415513 -0.0526307 0.782875 0.166818 1.00211L5.17856 6.0089L0.166818 11.0157C-0.0526307 11.2349 -0.0585618 11.6082 0.166818 11.8333Z" fill="#F6F6F6"/>
</svg>
