<svg width="16" height="16" viewBox="0 0 16 16" fill="none" xmlns="http://www.w3.org/2000/svg">
    <path d="M9.26717 14.3992C9.46993 14.3992 9.64727 14.3231 9.8163 14.1626L15.434 8.56178C15.6029 8.40127 15.6875 8.20697 15.6875 7.99578C15.6875 7.78459 15.6029 7.59029 15.434 7.42979L9.83317 1.84584C9.64727 1.65999 9.46993 1.59241 9.26717 1.59241C8.85324 1.59241 8.5322 1.89652 8.5322 2.31891C8.5322 2.52166 8.59979 2.71596 8.73499 2.85112L10.6273 4.7772L14.1499 7.99578L10.6273 11.2143L8.73499 13.1404C8.59979 13.2672 8.5322 13.4699 8.5322 13.6726C8.5322 14.095 8.85324 14.3992 9.26717 14.3992ZM0.7434 8.74763H11.4298L14.1499 8.57868C14.4963 8.55334 14.7328 8.34214 14.7328 7.99578C14.7328 7.64942 14.4963 7.43823 14.1499 7.41289L11.4298 7.24393H0.7434C0.304118 7.24393 0 7.5565 0 7.99578C0 8.43507 0.304118 8.74763 0.7434 8.74763Z" fill="#F3E9E9"/>
</svg>
