<svg width="14" height="14" viewBox="0 0 14 14" fill="none" xmlns="http://www.w3.org/2000/svg">
    <g clip-path="url(#clip0_1_15702)">
        <path d="M5.1917 14C5.53278 14 5.80246 13.8493 5.99284 13.5559L13.4886 1.75296C13.6314 1.52294 13.6869 1.34844 13.6869 1.166C13.6869 0.729737 13.4013 0.444183 12.9651 0.444183C12.6478 0.444183 12.4733 0.5473 12.283 0.848715L5.15997 12.1994L1.46364 7.36091C1.26534 7.08329 1.06704 6.97224 0.781494 6.97224C0.329368 6.97224 0.0200195 7.28159 0.0200195 7.71785C0.0200195 7.90028 0.0993397 8.10652 0.250048 8.29685L4.36677 13.5399C4.60473 13.8493 4.85063 14 5.1917 14Z" fill="#F3E9E9"/>
    </g>
    <defs>
        <clipPath id="clip0_1_15702">
            <rect width="14" height="14" fill="white"/>
        </clipPath>
    </defs>
</svg>
